{
	"asset":{
		"version":"2.0",
		"generator":"Houdini GLTF 2.0 Exporter"
	},
	"accessors":[
		{
			"bufferView":0,
			"componentType":5123,
			"count":4800,
			"type":"SCALAR",
			"min":[0
			],
			"max":[851
			]
		},
		{
			"bufferView":1,
			"componentType":5126,
			"count":852,
			"type":"VEC3",
			"min":[-0.0332776085,0.36390686,-0.00525426865
			],
			"max":[0.0332776085,0.406112671,0.0369615555
			]
		},
		{
			"bufferView":2,
			"componentType":5126,
			"count":852,
			"type":"VEC3",
			"min":[0,0,0
			],
			"max":[0,0,0
			]
		},
		{
			"bufferView":3,
			"componentType":5126,
			"count":852,
			"type":"VEC3",
			"min":[1,1,1
			],
			"max":[1,1,1
			]
		},
		{
			"bufferView":4,
			"componentType":5126,
			"count":852,
			"type":"VEC3",
			"min":[0,0,0
			],
			"max":[0,0,0
			]
		},
		{
			"bufferView":5,
			"componentType":5126,
			"count":852,
			"type":"VEC2",
			"min":[0.0128314504,0.0132998228
			],
			"max":[0.986537278,0.987004399
			]
		},
		{
			"bufferView":6,
			"componentType":5126,
			"count":852,
			"type":"VEC3",
			"min":[-0.998319685,-0.999643862,-0.999431074
			],
			"max":[0.998319685,0.999643862,0.999373734
			]
		},
		{
			"bufferView":7,
			"componentType":5123,
			"count":26688,
			"type":"SCALAR",
			"min":[0
			],
			"max":[17791
			]
		},
		{
			"bufferView":8,
			"componentType":5126,
			"count":17792,
			"type":"VEC3",
			"min":[-0.0468533896,0.334609985,-0.010361433
			],
			"max":[0.0468533896,0.445449829,0.0507344007
			]
		},
		{
			"bufferView":9,
			"componentType":5126,
			"count":17792,
			"type":"VEC3",
			"min":[0,0,0
			],
			"max":[0,0,0
			]
		},
		{
			"bufferView":10,
			"componentType":5126,
			"count":17792,
			"type":"VEC3",
			"min":[1,1,1
			],
			"max":[1,1,1
			]
		},
		{
			"bufferView":11,
			"componentType":5126,
			"count":17792,
			"type":"VEC3",
			"min":[0,0,0
			],
			"max":[0,0,0
			]
		},
		{
			"bufferView":12,
			"componentType":5126,
			"count":17792,
			"type":"VEC2",
			"min":[0.000420570374,0.00319695473
			],
			"max":[0.999408007,0.99950248
			]
		},
		{
			"bufferView":13,
			"componentType":5126,
			"count":17792,
			"type":"VEC3",
			"min":[-0.999950111,-0.999170423,-0.999766409
			],
			"max":[0.999950111,0.999960065,0.999999881
			]
		},
		{
			"bufferView":14,
			"componentType":5123,
			"count":13062,
			"type":"SCALAR",
			"min":[0
			],
			"max":[2917
			]
		},
		{
			"bufferView":15,
			"componentType":5126,
			"count":2918,
			"type":"VEC3",
			"min":[-0.0734057426,-0.0409256481,-0.070631586
			],
			"max":[0.0736702159,0.5,0.0615471601
			]
		},
		{
			"bufferView":16,
			"componentType":5126,
			"count":2918,
			"type":"VEC3",
			"min":[0,0,0
			],
			"max":[0,0,0
			]
		},
		{
			"bufferView":17,
			"componentType":5126,
			"count":2918,
			"type":"VEC3",
			"min":[1,1,1
			],
			"max":[1,1,1
			]
		},
		{
			"bufferView":18,
			"componentType":5126,
			"count":2918,
			"type":"VEC3",
			"min":[0,0,0
			],
			"max":[0,0,0
			]
		},
		{
			"bufferView":19,
			"componentType":5126,
			"count":2918,
			"type":"VEC2",
			"min":[0,0
			],
			"max":[0.874987483,1.00203753
			]
		},
		{
			"bufferView":20,
			"componentType":5126,
			"count":2918,
			"type":"VEC3",
			"min":[-0.99998641,-0.999988556,-0.999970078
			],
			"max":[0.999882638,0.999686658,0.999984562
			]
		},
		{
			"bufferView":21,
			"componentType":5123,
			"count":7788,
			"type":"SCALAR",
			"min":[0
			],
			"max":[5191
			]
		},
		{
			"bufferView":22,
			"componentType":5126,
			"count":5192,
			"type":"VEC3",
			"min":[-7.24418052e-12,-0.443969727,-0.0463068485
			],
			"max":[0.253705472,0.445404053,0.0317976475
			]
		},
		{
			"bufferView":23,
			"componentType":5126,
			"count":5192,
			"type":"VEC3",
			"min":[0,0,0
			],
			"max":[0,0,0
			]
		},
		{
			"bufferView":24,
			"componentType":5126,
			"count":5192,
			"type":"VEC3",
			"min":[1,1,1
			],
			"max":[1,1,1
			]
		},
		{
			"bufferView":25,
			"componentType":5126,
			"count":5192,
			"type":"VEC3",
			"min":[0,0,0
			],
			"max":[0,0,0
			]
		},
		{
			"bufferView":26,
			"componentType":5126,
			"count":5192,
			"type":"VEC2",
			"min":[1.07666957,0.0169699788
			],
			"max":[1.98282003,0.991224885
			]
		},
		{
			"bufferView":27,
			"componentType":5126,
			"count":5192,
			"type":"VEC3",
			"min":[-0.99799639,-0.999830961,-0.999814987
			],
			"max":[0.99974376,0.999278605,0.999893367
			]
		},
		{
			"bufferView":28,
			"componentType":5123,
			"count":24006,
			"type":"SCALAR",
			"min":[0
			],
			"max":[16051
			]
		},
		{
			"bufferView":29,
			"componentType":5126,
			"count":16052,
			"type":"VEC3",
			"min":[-0.317065209,-0.499443054,-0.0397301912
			],
			"max":[0.316854507,0.320617676,0.064140439
			]
		},
		{
			"bufferView":30,
			"componentType":5126,
			"count":16052,
			"type":"VEC3",
			"min":[0,0,0
			],
			"max":[0,0,0
			]
		},
		{
			"bufferView":31,
			"componentType":5126,
			"count":16052,
			"type":"VEC3",
			"min":[1,1,1
			],
			"max":[1,1,1
			]
		},
		{
			"bufferView":32,
			"componentType":5126,
			"count":16052,
			"type":"VEC3",
			"min":[0,0,0
			],
			"max":[0,0,0
			]
		},
		{
			"bufferView":33,
			"componentType":5126,
			"count":16052,
			"type":"VEC2",
			"min":[2.00802588,0.00227588415
			],
			"max":[2.99809694,0.993889987
			]
		},
		{
			"bufferView":34,
			"componentType":5126,
			"count":16052,
			"type":"VEC3",
			"min":[-0.999894202,-0.999090075,-0.999925613
			],
			"max":[0.997867525,0.998830914,0.999872565
			]
		},
		{
			"bufferView":35,
			"componentType":5123,
			"count":24006,
			"type":"SCALAR",
			"min":[0
			],
			"max":[16051
			]
		},
		{
			"bufferView":36,
			"componentType":5126,
			"count":16052,
			"type":"VEC3",
			"min":[-0.316854507,-0.499443054,-0.0397301912
			],
			"max":[0.317065209,0.320617676,0.064140439
			]
		},
		{
			"bufferView":37,
			"componentType":5126,
			"count":16052,
			"type":"VEC3",
			"min":[0,0,0
			],
			"max":[0,0,0
			]
		},
		{
			"bufferView":38,
			"componentType":5126,
			"count":16052,
			"type":"VEC3",
			"min":[1,1,1
			],
			"max":[1,1,1
			]
		},
		{
			"bufferView":39,
			"componentType":5126,
			"count":16052,
			"type":"VEC3",
			"min":[0,0,0
			],
			"max":[0,0,0
			]
		},
		{
			"bufferView":40,
			"componentType":5126,
			"count":16052,
			"type":"VEC2",
			"min":[3.00190306,0.00227677822
			],
			"max":[3.99201369,0.993889987
			]
		},
		{
			"bufferView":41,
			"componentType":5126,
			"count":16052,
			"type":"VEC3",
			"min":[-0.997867584,-0.999090075,-0.999925613
			],
			"max":[0.999894202,0.998830914,0.999872565
			]
		},
		{
			"bufferView":42,
			"componentType":5123,
			"count":7788,
			"type":"SCALAR",
			"min":[0
			],
			"max":[5191
			]
		},
		{
			"bufferView":43,
			"componentType":5126,
			"count":5192,
			"type":"VEC3",
			"min":[-0.253705472,-0.443969727,-0.0463068485
			],
			"max":[5.40892114e-12,0.445404053,0.0317976475
			]
		},
		{
			"bufferView":44,
			"componentType":5126,
			"count":5192,
			"type":"VEC3",
			"min":[0,0,0
			],
			"max":[0,0,0
			]
		},
		{
			"bufferView":45,
			"componentType":5126,
			"count":5192,
			"type":"VEC3",
			"min":[1,1,1
			],
			"max":[1,1,1
			]
		},
		{
			"bufferView":46,
			"componentType":5126,
			"count":5192,
			"type":"VEC3",
			"min":[0,0,0
			],
			"max":[0,0,0
			]
		},
		{
			"bufferView":47,
			"componentType":5126,
			"count":5192,
			"type":"VEC2",
			"min":[4.01718235,0.0169699192
			],
			"max":[4.92333031,0.991224885
			]
		},
		{
			"bufferView":48,
			"componentType":5126,
			"count":5192,
			"type":"VEC3",
			"min":[-0.99974376,-0.999830961,-0.999814987
			],
			"max":[0.99799639,0.999278605,0.999893367
			]
		},
		{
			"bufferView":49,
			"componentType":5125,
			"count":37812,
			"type":"SCALAR",
			"min":[0
			],
			"max":[17893
			]
		},
		{
			"bufferView":50,
			"componentType":5126,
			"count":17894,
			"type":"VEC3",
			"min":[-0.244897738,-0.486951023,-0.153126314
			],
			"max":[0.247593597,0.45891571,0.152676508
			]
		},
		{
			"bufferView":51,
			"componentType":5126,
			"count":17894,
			"type":"VEC3",
			"min":[0,0,0
			],
			"max":[0,0,0
			]
		},
		{
			"bufferView":52,
			"componentType":5126,
			"count":17894,
			"type":"VEC3",
			"min":[1,1,1
			],
			"max":[1,1,1
			]
		},
		{
			"bufferView":53,
			"componentType":5126,
			"count":17894,
			"type":"VEC3",
			"min":[0,0,0
			],
			"max":[0,0,0
			]
		},
		{
			"bufferView":54,
			"componentType":5126,
			"count":17894,
			"type":"VEC2",
			"min":[0.0635280982,-0.772487521
			],
			"max":[9.98604298,0.999009073
			]
		},
		{
			"bufferView":55,
			"componentType":5126,
			"count":17894,
			"type":"VEC3",
			"min":[-0.999649167,-0.996076107,-0.999732673
			],
			"max":[0.999399006,0.993044436,0.999652386
			]
		}
	],
	"buffers":[
		{
			"uri":"xiaoqian_data.bin",
			"byteLength":5939716,
			"name":"main_buffer"
		}
	],
	"bufferViews":[
		{
			"buffer":0,
			"byteLength":9600,
			"target":34963
		},
		{
			"buffer":0,
			"byteOffset":9600,
			"byteLength":10224,
			"target":34962
		},
		{
			"buffer":0,
			"byteOffset":19824,
			"byteLength":10224,
			"target":34962
		},
		{
			"buffer":0,
			"byteOffset":30048,
			"byteLength":10224,
			"target":34962
		},
		{
			"buffer":0,
			"byteOffset":40272,
			"byteLength":10224,
			"target":34962
		},
		{
			"buffer":0,
			"byteOffset":50496,
			"byteLength":6816,
			"target":34962
		},
		{
			"buffer":0,
			"byteOffset":57312,
			"byteLength":10224,
			"target":34962
		},
		{
			"buffer":0,
			"byteOffset":67536,
			"byteLength":53376,
			"target":34963
		},
		{
			"buffer":0,
			"byteOffset":120912,
			"byteLength":213504,
			"target":34962
		},
		{
			"buffer":0,
			"byteOffset":334416,
			"byteLength":213504,
			"target":34962
		},
		{
			"buffer":0,
			"byteOffset":547920,
			"byteLength":213504,
			"target":34962
		},
		{
			"buffer":0,
			"byteOffset":761424,
			"byteLength":213504,
			"target":34962
		},
		{
			"buffer":0,
			"byteOffset":974928,
			"byteLength":142336,
			"target":34962
		},
		{
			"buffer":0,
			"byteOffset":1117264,
			"byteLength":213504,
			"target":34962
		},
		{
			"buffer":0,
			"byteOffset":1330768,
			"byteLength":26124,
			"target":34963
		},
		{
			"buffer":0,
			"byteOffset":1356892,
			"byteLength":35016,
			"target":34962
		},
		{
			"buffer":0,
			"byteOffset":1391908,
			"byteLength":35016,
			"target":34962
		},
		{
			"buffer":0,
			"byteOffset":1426924,
			"byteLength":35016,
			"target":34962
		},
		{
			"buffer":0,
			"byteOffset":1461940,
			"byteLength":35016,
			"target":34962
		},
		{
			"buffer":0,
			"byteOffset":1496956,
			"byteLength":23344,
			"target":34962
		},
		{
			"buffer":0,
			"byteOffset":1520300,
			"byteLength":35016,
			"target":34962
		},
		{
			"buffer":0,
			"byteOffset":1555316,
			"byteLength":15576,
			"target":34963
		},
		{
			"buffer":0,
			"byteOffset":1570892,
			"byteLength":62304,
			"target":34962
		},
		{
			"buffer":0,
			"byteOffset":1633196,
			"byteLength":62304,
			"target":34962
		},
		{
			"buffer":0,
			"byteOffset":1695500,
			"byteLength":62304,
			"target":34962
		},
		{
			"buffer":0,
			"byteOffset":1757804,
			"byteLength":62304,
			"target":34962
		},
		{
			"buffer":0,
			"byteOffset":1820108,
			"byteLength":41536,
			"target":34962
		},
		{
			"buffer":0,
			"byteOffset":1861644,
			"byteLength":62304,
			"target":34962
		},
		{
			"buffer":0,
			"byteOffset":1923948,
			"byteLength":48012,
			"target":34963
		},
		{
			"buffer":0,
			"byteOffset":1971960,
			"byteLength":192624,
			"target":34962
		},
		{
			"buffer":0,
			"byteOffset":2164584,
			"byteLength":192624,
			"target":34962
		},
		{
			"buffer":0,
			"byteOffset":2357208,
			"byteLength":192624,
			"target":34962
		},
		{
			"buffer":0,
			"byteOffset":2549832,
			"byteLength":192624,
			"target":34962
		},
		{
			"buffer":0,
			"byteOffset":2742456,
			"byteLength":128416,
			"target":34962
		},
		{
			"buffer":0,
			"byteOffset":2870872,
			"byteLength":192624,
			"target":34962
		},
		{
			"buffer":0,
			"byteOffset":3063496,
			"byteLength":48012,
			"target":34963
		},
		{
			"buffer":0,
			"byteOffset":3111508,
			"byteLength":192624,
			"target":34962
		},
		{
			"buffer":0,
			"byteOffset":3304132,
			"byteLength":192624,
			"target":34962
		},
		{
			"buffer":0,
			"byteOffset":3496756,
			"byteLength":192624,
			"target":34962
		},
		{
			"buffer":0,
			"byteOffset":3689380,
			"byteLength":192624,
			"target":34962
		},
		{
			"buffer":0,
			"byteOffset":3882004,
			"byteLength":128416,
			"target":34962
		},
		{
			"buffer":0,
			"byteOffset":4010420,
			"byteLength":192624,
			"target":34962
		},
		{
			"buffer":0,
			"byteOffset":4203044,
			"byteLength":15576,
			"target":34963
		},
		{
			"buffer":0,
			"byteOffset":4218620,
			"byteLength":62304,
			"target":34962
		},
		{
			"buffer":0,
			"byteOffset":4280924,
			"byteLength":62304,
			"target":34962
		},
		{
			"buffer":0,
			"byteOffset":4343228,
			"byteLength":62304,
			"target":34962
		},
		{
			"buffer":0,
			"byteOffset":4405532,
			"byteLength":62304,
			"target":34962
		},
		{
			"buffer":0,
			"byteOffset":4467836,
			"byteLength":41536,
			"target":34962
		},
		{
			"buffer":0,
			"byteOffset":4509372,
			"byteLength":62304,
			"target":34962
		},
		{
			"buffer":0,
			"byteOffset":4571676,
			"byteLength":151248,
			"target":34963
		},
		{
			"buffer":0,
			"byteOffset":4722924,
			"byteLength":214728,
			"target":34962
		},
		{
			"buffer":0,
			"byteOffset":4937652,
			"byteLength":214728,
			"target":34962
		},
		{
			"buffer":0,
			"byteOffset":5152380,
			"byteLength":214728,
			"target":34962
		},
		{
			"buffer":0,
			"byteOffset":5367108,
			"byteLength":214728,
			"target":34962
		},
		{
			"buffer":0,
			"byteOffset":5581836,
			"byteLength":143152,
			"target":34962
		},
		{
			"buffer":0,
			"byteOffset":5724988,
			"byteLength":214728,
			"target":34962
		}
	],
	"nodes":[
		{
			"name":"xiaoqian",
			"mesh":0
		}
	],
	"meshes":[
		{
			"primitives":[
				{
					"attributes":{
						"NORMAL":6,
						"_fbx_rotation":4,
						"TEXCOORD_0":5,
						"_fbx_scale":3,
						"_fbx_translation":2,
						"POSITION":1
					},
					"indices":0,
					"material":0
				},
				{
					"attributes":{
						"NORMAL":13,
						"_fbx_rotation":11,
						"TEXCOORD_0":12,
						"_fbx_scale":10,
						"_fbx_translation":9,
						"POSITION":8
					},
					"indices":7,
					"material":1
				},
				{
					"attributes":{
						"NORMAL":20,
						"_fbx_rotation":18,
						"TEXCOORD_0":19,
						"_fbx_scale":17,
						"_fbx_translation":16,
						"POSITION":15
					},
					"indices":14,
					"material":2
				},
				{
					"attributes":{
						"NORMAL":27,
						"_fbx_rotation":25,
						"TEXCOORD_0":26,
						"_fbx_scale":24,
						"_fbx_translation":23,
						"POSITION":22
					},
					"indices":21,
					"material":3
				},
				{
					"attributes":{
						"NORMAL":34,
						"_fbx_rotation":32,
						"TEXCOORD_0":33,
						"_fbx_scale":31,
						"_fbx_translation":30,
						"POSITION":29
					},
					"indices":28,
					"material":4
				},
				{
					"attributes":{
						"NORMAL":41,
						"_fbx_rotation":39,
						"TEXCOORD_0":40,
						"_fbx_scale":38,
						"_fbx_translation":37,
						"POSITION":36
					},
					"indices":35,
					"material":5
				},
				{
					"attributes":{
						"NORMAL":48,
						"_fbx_rotation":46,
						"TEXCOORD_0":47,
						"_fbx_scale":45,
						"_fbx_translation":44,
						"POSITION":43
					},
					"indices":42,
					"material":6
				},
				{
					"attributes":{
						"NORMAL":55,
						"_fbx_rotation":53,
						"TEXCOORD_0":54,
						"_fbx_scale":52,
						"_fbx_translation":51,
						"POSITION":50
					},
					"indices":49,
					"material":7
				}
			],
			"name":"material1"
		}
	],
	"materials":[
		{
			"name":"eye",
			"pbrMetallicRoughness":{
				"metallicFactor":0,
				"roughnessFactor":0.300000012,
				"baseColorTexture":{
					"index":0
				}
			}
		},
		{
			"name":"base_skin1",
			"pbrMetallicRoughness":{
				"metallicFactor":0,
				"roughnessFactor":0.300000012,
				"baseColorTexture":{
					"index":1
				}
			}
		},
		{
			"name":"hair",
			"pbrMetallicRoughness":{
				"baseColorFactor":[0.00625000009,0.00625000009,0.00625000009,1
				],
				"metallicFactor":0,
				"roughnessFactor":0.800000012
			}
		},
		{
			"name":"base_skin2",
			"pbrMetallicRoughness":{
				"metallicFactor":0,
				"roughnessFactor":0.300000012,
				"baseColorTexture":{
					"index":2
				}
			}
		},
		{
			"name":"base_skin3",
			"pbrMetallicRoughness":{
				"metallicFactor":0,
				"roughnessFactor":0.300000012,
				"baseColorTexture":{
					"index":3
				}
			}
		},
		{
			"name":"base_skin4",
			"pbrMetallicRoughness":{
				"metallicFactor":0,
				"roughnessFactor":0.300000012,
				"baseColorTexture":{
					"index":4
				}
			}
		},
		{
			"name":"base_skin5",
			"pbrMetallicRoughness":{
				"metallicFactor":0,
				"roughnessFactor":0.300000012,
				"baseColorTexture":{
					"index":5
				}
			}
		},
		{
			"name":"cloth",
			"pbrMetallicRoughness":{
				"baseColorFactor":[0.342999995,0.0150920097,0.0528510958,1
				],
				"metallicFactor":0,
				"roughnessFactor":0.300000012
			}
		}
	],
	"scenes":[
		{
			"nodes":[0
			]
		}
	],
	"textures":[
		{
			"source":0
		},
		{
			"source":1
		},
		{
			"source":2
		},
		{
			"source":3
		},
		{
			"source":4
		},
		{
			"source":5
		}
	],
	"images":[
		{
			"uri":"XiaoQian_eye_1001_Diff.jpg",
			"mimeType":"image/jpeg"
		},
		{
			"uri":"XiaoQian_Body_1001_Diff.jpg",
			"mimeType":"image/jpeg"
		},
		{
			"uri":"XiaoQian_BodyDiff_1002.jpg",
			"mimeType":"image/jpeg"
		},
		{
			"uri":"XiaoQian_BodyDiff_1003.jpg",
			"mimeType":"image/jpeg"
		},
		{
			"uri":"XiaoQian_BodyDiff_1004.jpg",
			"mimeType":"image/jpeg"
		},
		{
			"uri":"XiaoQian_BodyDiff_1005.jpg",
			"mimeType":"image/jpeg"
		}
	],
	"scene":0
}
