{
	"asset":{
		"version":"2.0",
		"generator":"Houdini GLTF 2.0 Exporter"
	},
	"accessors":[
		{
			"bufferView":0,
			"componentType":5125,
			"count":100668,
			"type":"SCALAR",
			"min":[0
			],
			"max":[18773
			]
		},
		{
			"bufferView":1,
			"componentType":5126,
			"count":18774,
			"type":"VEC3",
			"min":[-0.317065209,-0.499443054,-0.0495074987
			],
			"max":[0.317065209,0.445449829,0.064140439
			]
		},
		{
			"bufferView":2,
			"componentType":5126,
			"count":18774,
			"type":"VEC3",
			"min":[0,0,0
			],
			"max":[0,0,0
			]
		},
		{
			"bufferView":3,
			"componentType":5126,
			"count":18774,
			"type":"VEC3",
			"min":[1,1,1
			],
			"max":[1,1,1
			]
		},
		{
			"bufferView":4,
			"componentType":5126,
			"count":18774,
			"type":"VEC3",
			"min":[0,0,0
			],
			"max":[0,0,0
			]
		},
		{
			"bufferView":5,
			"componentType":5126,
			"count":18774,
			"type":"VEC2",
			"min":[0.000420570374,0.00227588415
			],
			"max":[4.9911027,0.99950248
			]
		},
		{
			"bufferView":6,
			"componentType":5126,
			"count":18774,
			"type":"VEC3",
			"min":[-0.999956846,-0.999992132,-0.999952435
			],
			"max":[0.999956846,0.999960065,0.999999881
			]
		}
	],
	"buffers":[
		{
			"uri":"xiaoqian_data.bin",
			"byteLength":1679304,
			"name":"main_buffer"
		}
	],
	"bufferViews":[
		{
			"buffer":0,
			"byteLength":402672,
			"target":34963
		},
		{
			"buffer":0,
			"byteOffset":402672,
			"byteLength":225288,
			"target":34962
		},
		{
			"buffer":0,
			"byteOffset":627960,
			"byteLength":225288,
			"target":34962
		},
		{
			"buffer":0,
			"byteOffset":853248,
			"byteLength":225288,
			"target":34962
		},
		{
			"buffer":0,
			"byteOffset":1078536,
			"byteLength":225288,
			"target":34962
		},
		{
			"buffer":0,
			"byteOffset":1303824,
			"byteLength":150192,
			"target":34962
		},
		{
			"buffer":0,
			"byteOffset":1454016,
			"byteLength":225288,
			"target":34962
		}
	],
	"nodes":[
		{
			"name":"geo1",
			"mesh":0
		}
	],
	"meshes":[
		{
			"primitives":[
				{
					"attributes":{
						"NORMAL":6,
						"_fbx_rotation":4,
						"TEXCOORD_0":5,
						"_fbx_scale":3,
						"_fbx_translation":2,
						"POSITION":1
					},
					"indices":0,
					"material":0
				}
			],
			"name":"material1"
		}
	],
	"materials":[
		{
			"name":"base_skin",
			"pbrMetallicRoughness":{
				"baseColorFactor":[0.200000003,0.200000003,0.200000003,1
				],
				"metallicFactor":0,
				"roughnessFactor":0.300000012,
				"baseColorTexture":{
					"index":0
				}
			}
		}
	],
	"scenes":[
		{
			"nodes":[0
			]
		}
	],
	"textures":[
		{
			"source":0
		}
	],
	"images":[
		{
			"uri":"XiaoQian_Body_1001_Diff.jpg",
			"mimeType":"image/jpeg"
		}
	],
	"scene":0
}
